<svg id="Capa_1" enable-background="new 0 0 512 512" height="512" viewBox="0 0 512 512" width="512" xmlns="http://www.w3.org/2000/svg"><g><g><path d="m442 352h60v120h-60z" fill="#eefaff"/><path d="m442 502h-90c0-36.04 0-144.089 0-180h90z" fill="#b3f1ff"/><path d="m406 10v60h-90c-16.54 0-30 13.46-30 30v36h66v186h-192v-186h66v-36c0-49.63 40.37-90 90-90z" fill="#b3f1ff"/><path d="m160 322v180h192c0-36.04 0-144.089 0-180z" fill="#eefaff"/><circle cx="256" cy="229" fill="#eefaff" r="30"/><path d="m160 502h-90c0-22.292 0-157.26 0-180h90z" fill="#b3f1ff"/><path d="m10 352h60v120h-60z" fill="#eefaff"/></g><g><path d="m256 189c-22.056 0-40 17.944-40 40s17.944 40 40 40 40-17.944 40-40-17.944-40-40-40zm0 60c-11.028 0-20-8.972-20-20s8.972-20 20-20 20 8.972 20 20-8.972 20-20 20z"/><path d="m502 312c-5.523 0-10 4.477-10 10v20h-40v-20c0-5.523-4.477-10-10-10h-80v-176c0-5.523-4.477-10-10-10h-56v-26c0-11.028 8.972-20 20-20h90c5.523 0 10-4.477 10-10v-60c0-5.523-4.477-10-10-10h-90c-55.14 0-100 44.86-100 100v26h-56c-5.523 0-10 4.477-10 10v176h-80c-5.523 0-10 4.477-10 10v20h-40v-20c0-5.523-4.477-10-10-10s-10 4.477-10 10v180c0 5.523 4.477 10 10 10s10-4.477 10-10v-20h40v20c0 5.523 4.477 10 10 10h141c5.523 0 10-4.477 10-10s-4.477-10-10-10h-41v-40h172v40h-41c-5.523 0-10 4.477-10 10s4.477 10 10 10h141c5.523 0 10-4.477 10-10v-20h40v20c0 5.523 4.477 10 10 10s10-4.477 10-10v-180c0-5.523-4.477-10-10-10zm-332-166h56c5.523 0 10-4.477 10-10v-36c0-44.112 35.888-80 80-80h80v40h-80c-22.056 0-40 17.944-40 40v36c0 5.523 4.477 10 10 10h56v166h-172zm172 226h-172v-40h172zm-322 90v-100h40v100zm60-130h70v160h-70zm90 100v-40h172v40zm262 60h-70v-160h70zm20-30v-100h40v100z"/><circle cx="256" cy="502" r="10"/></g></g></svg>