<?xml version="1.0" ?><svg id="Layer_1" style="enable-background:new 0 0 512 512;" version="1.1" viewBox="0 0 512 512" xml:space="preserve" xmlns="http://www.w3.org/2000/svg" xmlns:xlink="http://www.w3.org/1999/xlink"><style type="text/css">
	.st0{fill:#2B79C2;}
	.st1{fill:#3B4652;}
</style><g><path class="st1" d="M454.3,69H57.7c-15.1,0-27.3,12.2-27.3,27.3v203.3c0,15.1,12.2,27.3,27.3,27.3h46v-53.3h304.7v53.3h46   c15.1,0,27.3-12.2,27.3-27.3V96.4C481.7,81.3,469.4,69,454.3,69z M361.7,147c-9.7,0-17.5-7.8-17.5-17.5c0-9.7,7.8-17.5,17.5-17.5   s17.5,7.8,17.5,17.5C379.2,139.2,371.4,147,361.7,147z M424,147c-9.7,0-17.5-7.8-17.5-17.5c0-9.7,7.8-17.5,17.5-17.5   c9.7,0,17.5,7.8,17.5,17.5C441.5,139.2,433.6,147,424,147z"/><path class="st0" d="M256,403c29.8,0,58-12.9,77.5-35.4c2.5-2.9,2.2-7.3-0.7-9.9c-2.9-2.5-7.3-2.2-9.9,0.7   c-16.9,19.4-41.3,30.6-67,30.6s-50.1-11.1-67-30.6c-2.5-2.9-7-3.2-9.9-0.7c-2.9,2.5-3.2,7-0.7,9.9C198,390.1,226.2,403,256,403z"/><path class="st0" d="M363,383.9c-2.9-2.5-7.3-2.2-9.9,0.7C328.6,412.8,293.2,429,256,429s-72.6-16.2-97.1-44.4   c-2.5-2.9-7-3.2-9.9-0.7s-3.2,7-0.7,9.9C175.5,425,214.7,443,256,443s80.5-17.9,107.7-49.2C366.2,390.8,365.9,386.4,363,383.9z"/></g></svg>