<?xml version="1.0" encoding="iso-8859-1"?>
<!-- Generator: Adobe Illustrator 19.0.0, SVG Export Plug-In . SVG Version: 6.00 Build 0)  -->
<svg version="1.1" id="Capa_1" xmlns="http://www.w3.org/2000/svg" xmlns:xlink="http://www.w3.org/1999/xlink" x="0px" y="0px"
	 viewBox="0 0 512 512" style="enable-background:new 0 0 512 512;" xml:space="preserve">
<path style="fill:#3B4652;" d="M177.087,63.946h297.944c16.421,0,29.046,14.525,26.76,30.786L454.82,428.748
	c-1.557,11.072-11.03,19.306-22.211,19.306H221.531c-11.181,0-20.654-8.234-22.211-19.306L152.067,92.73
	C149.929,77.526,161.734,63.946,177.087,63.946z"/>
<path style="fill:#2B79C2;" d="M475.032,63.946H177.087c-15.353,0-27.158,13.581-25.019,28.784l4.669,33.209h340.665l4.388-31.208
	C504.079,78.471,491.452,63.946,475.032,63.946z"/>
<circle style="fill:#2B79C2;" cx="327.073" cy="256.002" r="40.011"/>
<g>
	<polygon style="fill:#34BFE0;" points="327.071,212.919 327.071,111.959 260.052,111.959 304.432,222.291 	"/>
	<polygon style="fill:#34BFE0;" points="327.071,299.08 327.071,400.041 394.09,400.041 349.708,289.709 	"/>
	<polygon style="fill:#34BFE0;" points="289.761,277.54 202.327,328.021 235.837,386.06 309.197,292.458 	"/>
	<polygon style="fill:#34BFE0;" points="364.379,234.46 451.813,183.98 418.303,125.939 344.944,219.541 	"/>
	<polygon style="fill:#34BFE0;" points="364.379,277.54 451.813,328.021 485.322,269.98 367.582,253.249 	"/>
	<polygon style="fill:#34BFE0;" points="289.761,234.46 202.327,183.98 168.818,242.019 286.559,258.75 	"/>
</g>
<circle style="fill:#34BFE0;" cx="70.02" cy="196.005" r="60.017"/>
<circle style="fill:#34BFE0;" cx="70.02" cy="196.005" r="24.007"/>
<circle style="fill:#34BFE0;" cx="70.02" cy="390.04" r="60.017"/>
<circle style="fill:#34BFE0;" cx="70.02" cy="390.04" r="24.007"/>
<path d="M481.782,236.927c0.473,0.066,0.942,0.099,1.406,0.099c4.905,0,9.19-3.613,9.893-8.61l18.553-131.853
	c1.509-10.73-1.702-21.574-8.811-29.751c-7.107-8.177-17.4-12.868-28.235-12.868h-97.301c-5.524,0-10.003,4.478-10.003,10.003
	s4.479,10.003,10.003,10.003h97.301c5.041,0,9.829,2.183,13.136,5.987c3.308,3.804,4.801,8.85,4.1,13.84l-3.119,22.161H424.85h-4.1
	h-83.678v-3.977c0-5.525-4.479-10.003-10.003-10.003h-67.019c-3.322,0-6.429,1.649-8.288,4.403c-1.86,2.754-2.232,6.251-0.991,9.333
	l0.098,0.244h-85.437l-4.334-30.824c-0.4-2.852,0.418-5.62,2.309-7.793c1.89-2.174,4.516-3.371,7.397-3.371h111.62
	c5.524,0,10.003-4.478,10.003-10.003s-4.479-10.003-10.003-10.003H170.802c-8.633,0-16.833,3.737-22.496,10.253
	c-5.663,6.516-8.221,15.155-7.019,23.704l5.357,38.09H70.02C31.411,125.989,0,157.4,0,196.009c0,38.596,31.39,69.997,69.981,70.019
	c0.013,0,0.026,0.002,0.039,0.002c0.001,0,0.002,0,0.003,0l85.078-0.023L44.009,322.898c-0.284,0.146-0.556,0.305-0.82,0.473
	C17.858,333.921,0,358.929,0,388.038c0,38.609,31.411,70.02,70.02,70.02c12.535,0,24.301-3.327,34.49-9.121
	c0.307-0.138,0.613-0.276,0.911-0.448l80.074-46.231l4.582,32.585c1.86,13.234,13.341,23.215,26.706,23.215h220.576
	c13.365,0,24.846-9.981,26.706-23.214l8.922-63.441c0.77-5.471-3.042-10.529-8.512-11.298c-5.478-0.768-10.529,3.041-11.298,8.512
	l-8.922,63.442c-0.48,3.416-3.444,5.993-6.896,5.993H216.782c-3.451,0-6.415-2.577-6.896-5.994l-13.188-93.781l30.475,52.784
	c1.661,2.878,4.643,4.742,7.957,4.976c0.236,0.018,0.472,0.025,0.706,0.025c3.061,0,5.969-1.403,7.872-3.832l69.186-88.275
	c1.369,0.405,2.758,0.763,4.172,1.052v95.033c0,5.524,4.479,10.003,10.003,10.003h67.019c3.322,0,6.429-1.649,8.288-4.402
	c1.86-2.754,2.232-6.251,0.991-9.333L361.5,292.224c1.035-0.983,2.03-2.009,2.977-3.077l82.334,47.535
	c1.575,0.909,3.295,1.342,4.991,1.342c3.457,0,6.82-1.795,8.672-5.003l33.509-58.039c1.661-2.878,1.786-6.393,0.331-9.38
	c-1.454-2.987-4.297-5.058-7.586-5.525L375.687,244.3c-0.337-1.401-0.735-2.779-1.188-4.132l82.314-47.523
	c2.298-1.326,3.974-3.511,4.66-6.074c0.687-2.563,0.327-5.293-0.999-7.59l-24.847-43.036h50.262l-12.621,89.686
	C472.501,231.099,476.312,236.157,481.782,236.927z M397.756,135.942l-56.51,72.102c-1.369-0.405-2.758-0.763-4.172-1.052v-71.05
	H397.756z M184.882,234.199l21.106-36.555l73.652,42.522c-0.783,2.342-1.397,4.757-1.83,7.238L184.882,234.199z M327.071,286.009
	c-16.547,0-30.009-13.462-30.009-30.008c0-16.547,13.462-30.008,30.009-30.008c16.547,0,30.008,13.462,30.008,30.008
	C357.079,272.547,343.617,286.009,327.071,286.009z M317.068,121.962v85.03c-2.466,0.502-4.866,1.186-7.187,2.038l-35.023-87.068
	C274.858,121.962,317.068,121.962,317.068,121.962z M149.457,145.995l3.774,26.839c0.702,4.998,4.985,8.611,9.893,8.611
	c0.464,0,0.934-0.033,1.405-0.099c5.471-0.769,9.282-5.828,8.512-11.298l-4.795-34.105h90.672l33.723,83.834
	c-1.034,0.984-2.029,2.009-2.977,3.077l-82.334-47.535c-4.785-2.763-10.902-1.123-13.664,3.661l-33.509,58.04
	c-1.589,2.752-1.756,6.082-0.496,8.982l-40.69,0.011c12.988-12.721,21.069-30.432,21.069-50.003
	c0-19.579-8.086-37.295-21.083-50.014H149.457z M20.006,196.009c0-27.578,22.436-50.014,50.014-50.014s50.014,22.436,50.014,50.014
	s-22.436,50.014-50.014,50.014l0,0C42.442,246.023,20.006,223.587,20.006,196.009z M20.006,388.038
	c0-27.578,22.436-50.014,50.014-50.014s50.014,22.436,50.014,50.014s-22.436,50.014-50.014,50.014S20.006,415.615,20.006,388.038z
	 M180.98,381.763l-43.543,25.14c1.683-6.007,2.604-12.328,2.604-18.865c0-31.269-20.606-57.81-48.949-66.774l77.437-39.656
	l13.985,99.447C181.992,381.248,181.477,381.476,180.98,381.763z M194.399,321.922l-9.495-67.513l93.548,13.292
	c0.337,1.401,0.734,2.78,1.188,4.133l-82.314,47.523C196.181,320.019,195.189,320.893,194.399,321.922z M237.096,368.237
	l-21.106-36.555l73.672-42.534c1.651,1.862,3.436,3.601,5.344,5.199L237.096,368.237z M379.283,390.038h-42.21v-85.03
	c2.466-0.502,4.866-1.186,7.188-2.038L379.283,390.038z M448.152,314.357L374.5,271.835c0.783-2.342,1.397-4.757,1.83-7.238
	l92.928,13.205L448.152,314.357z M364.478,222.853c-1.651-1.862-3.436-3.601-5.345-5.199l57.91-73.89l21.106,36.555L364.478,222.853
	z"/>
<path d="M327.306,73.949h0.8c5.524,0,10.003-4.478,10.003-10.003s-4.479-10.003-10.003-10.003h-0.8
	c-5.524,0-10.003,4.478-10.003,10.003S321.781,73.949,327.306,73.949z"/>
<path d="M70.02,354.028c-18.753,0-34.01,15.256-34.01,34.01s15.256,34.01,34.01,34.01s34.01-15.256,34.01-34.01
	S88.773,354.028,70.02,354.028z M70.02,402.041c-7.722,0-14.004-6.282-14.004-14.004s6.282-14.004,14.004-14.004
	s14.004,6.282,14.004,14.004S77.742,402.041,70.02,402.041z"/>
<path d="M70.02,230.019c18.753,0,34.01-15.256,34.01-34.01s-15.256-34.01-34.01-34.01s-34.01,15.256-34.01,34.01
	S51.267,230.019,70.02,230.019z M70.02,182.005c7.722,0,14.004,6.282,14.004,14.004c0,7.722-6.282,14.004-14.004,14.004
	s-14.004-6.282-14.004-14.004C56.016,188.287,62.298,182.005,70.02,182.005z"/>
<path d="M327.098,245.997h-0.179c-0.01,0-0.019,0-0.028,0c-5.512,0-9.987,4.46-10.002,9.976c-0.015,5.525,4.451,10.015,9.976,10.03
	l0.179,0.001c0.01,0,0.019,0,0.028,0c5.512,0,9.987-4.46,10.002-9.976C337.087,250.503,332.621,246.012,327.098,245.997z"/>
<g>
</g>
<g>
</g>
<g>
</g>
<g>
</g>
<g>
</g>
<g>
</g>
<g>
</g>
<g>
</g>
<g>
</g>
<g>
</g>
<g>
</g>
<g>
</g>
<g>
</g>
<g>
</g>
<g>
</g>
</svg>
