<?xml version="1.0" encoding="iso-8859-1"?>
<!-- Generator: Adobe Illustrator 19.0.0, SVG Export Plug-In . SVG Version: 6.00 Build 0)  -->
<svg version="1.1" id="Capa_1" xmlns="http://www.w3.org/2000/svg" xmlns:xlink="http://www.w3.org/1999/xlink" x="0px" y="0px"
	 viewBox="0 0 512 512" style="enable-background:new 0 0 512 512;" xml:space="preserve">
<g>
	<path style="fill:#F2F2F2;" d="M407.787,437.008c5.302,5.838,8.231,13.447,8.213,21.333c0,17.673-14.327,32-32,32s-32-14.327-32-32
		c0.04-17.673,14.399-31.968,32.072-31.928C393.119,426.434,401.735,430.283,407.787,437.008z"/>
	<path style="fill:#F2F2F2;" d="M279.787,437.008c5.302,5.838,8.231,13.447,8.213,21.333c0,17.673-14.327,32-32,32s-32-14.327-32-32
		c0.04-17.673,14.399-31.968,32.072-31.928C265.119,426.434,273.735,430.283,279.787,437.008z"/>
	<path style="fill:#F2F2F2;" d="M151.787,437.008c5.302,5.838,8.231,13.447,8.213,21.333c0,17.673-14.327,32-32,32s-32-14.327-32-32
		c0.04-17.673,14.399-31.968,32.072-31.928C137.119,426.434,145.735,430.283,151.787,437.008z"/>
</g>
<path style="fill:#AAC4DA;" d="M480,394.341v42.667h-72.213c-11.698-13.137-31.831-14.303-44.968-2.605
	c-0.918,0.817-1.788,1.687-2.605,2.605h-80.427c-11.698-13.137-31.831-14.303-44.968-2.605c-0.918,0.817-1.788,1.687-2.605,2.605
	h-80.427c-11.698-13.137-31.831-14.303-44.968-2.605c-0.918,0.817-1.788,1.687-2.605,2.605H32v-42.667
	c0-5.891,4.776-10.667,10.667-10.667h426.667C475.224,383.675,480,388.45,480,394.341z"/>
<path style="fill:#D9EEF7;" d="M416,341.008v42.667H96v-42.667h64h192H416z"/>
<path style="fill:#69F0F7;" d="M501.333,127.675v149.333c0,35.346-28.654,64-64,64H74.667c-35.346,0-64-28.654-64-64V127.675
	c0-35.346,28.654-64,64-64H96v-32c0-5.891,4.776-10.667,10.667-10.667h64c5.891,0,10.667,4.776,10.667,10.667v32h149.333v-32
	c0-5.891,4.776-10.667,10.667-10.667h64c5.891,0,10.667,4.776,10.667,10.667v32h21.333
	C472.68,63.675,501.333,92.329,501.333,127.675z"/>
<g>
	<path style="fill:#4C5B66;" d="M437.333,351.675c41.218-0.047,74.62-33.449,74.667-74.667V127.675
		c-0.047-41.218-33.449-74.62-74.667-74.667h-10.667V31.675c0-11.782-9.551-21.333-21.333-21.333h-64
		c-11.782,0-21.333,9.551-21.333,21.333v21.333H192V31.675c0-11.782-9.551-21.333-21.333-21.333h-64
		c-11.782,0-21.333,9.551-21.333,21.333v21.333H74.667C33.449,53.055,0.047,86.457,0,127.675v149.333
		c0.047,41.218,33.449,74.62,74.667,74.667h10.667v21.333H42.667c-11.782,0-21.333,9.551-21.333,21.333v42.667
		c0,5.891,4.776,10.667,10.667,10.667h54.859c-5.917,22.766,7.742,46.019,30.508,51.937s46.019-7.742,51.937-30.508
		c3.595-13.832,0.013-28.546-9.538-39.178c-15.429-17.458-42.09-19.102-59.548-3.673c-0.033,0.03-0.067,0.059-0.1,0.089H42.667v-32
		h426.667v32h-57.472c-15.86-14.222-39.884-14.222-55.744,0h-46.784v21.333h33.525c-6.244,22.722,7.113,46.203,29.835,52.448
		c22.722,6.244,46.203-7.113,52.448-29.835c2.034-7.4,2.034-15.212,0-22.613H480c5.891,0,10.667-4.776,10.667-10.667v-42.667
		c0-11.782-9.551-21.333-21.333-21.333h-42.667v-21.333H437.333z M128,437.008c6.015-0.052,11.757,2.504,15.744,7.008l0.139,0.149
		c3.512,3.886,5.454,8.938,5.451,14.176c0.039,11.782-9.481,21.365-21.263,21.404s-21.365-9.481-21.404-21.263
		c-0.018-5.352,1.977-10.516,5.589-14.466C116.243,439.513,121.985,436.957,128,437.008L128,437.008z M384,479.675
		c-11.782-0.035-21.305-9.615-21.269-21.397c0.016-5.273,1.984-10.354,5.525-14.261c7.828-8.695,21.222-9.398,29.918-1.57
		c0.551,0.496,1.075,1.02,1.57,1.57l0.139,0.149c3.512,3.886,5.454,8.938,5.451,14.176C405.333,470.124,395.782,479.675,384,479.675
		z M309.333,319.675H202.667v-32h106.667V319.675z M309.333,266.341H202.667v-32h106.667V266.341z M309.333,213.008H202.667v-32
		h106.667V213.008z M309.333,159.675H202.667v-32h106.667V159.675z M309.333,106.341H202.667v-32h106.667V106.341z M405.333,373.008
		H106.667v-21.333H160v-21.333H74.667c-29.441-0.035-53.298-23.893-53.333-53.333V127.675c0.035-29.441,23.893-53.298,53.333-53.333
		H96c5.891,0,10.667-4.776,10.667-10.667v-32h64v21.333h-32v21.333h42.667v277.333h21.333v-10.667h106.667v10.667h21.333V74.341
		h42.667V53.008h-32V31.675h64v32c0,5.891,4.776,10.667,10.667,10.667h21.333c29.441,0.035,53.298,23.893,53.333,53.333v149.333
		c-0.035,29.441-23.893,53.298-53.333,53.333H352v21.333h53.333V373.008z"/>
	<path style="fill:#4C5B66;" d="M256,415.675c-10.286,0.027-20.205,3.822-27.883,10.667h-46.784v21.333h33.525
		c-5.917,22.766,7.742,46.019,30.508,51.937s46.019-7.742,51.937-30.508c3.595-13.832,0.013-28.546-9.538-39.178
		C279.727,420.817,268.148,415.622,256,415.675z M256,479.675c-11.782-0.035-21.305-9.615-21.269-21.397
		c0.016-5.273,1.984-10.354,5.525-14.261c7.828-8.695,21.222-9.398,29.918-1.57c0.551,0.496,1.075,1.02,1.57,1.57l0.139,0.149
		c3.512,3.886,5.454,8.938,5.451,14.176C277.333,470.124,267.782,479.675,256,479.675z"/>
	<path style="fill:#4C5B66;" d="M53.333,149.008h21.333c-0.891-16.783,11.992-31.112,28.776-32.003
		c1.092-0.058,2.186-0.057,3.278,0.003l-0.053-21.333c-28.38-1.075-52.258,21.061-53.333,49.441
		C53.284,146.413,53.284,147.711,53.333,149.008z"/>
</g>
<g>
</g>
<g>
</g>
<g>
</g>
<g>
</g>
<g>
</g>
<g>
</g>
<g>
</g>
<g>
</g>
<g>
</g>
<g>
</g>
<g>
</g>
<g>
</g>
<g>
</g>
<g>
</g>
<g>
</g>
</svg>
